<svg width="226" height="84" fill="none" xmlns="http://www.w3.org/2000/svg"><g filter="url(#filter0_d)"><path fill-rule="evenodd" clip-rule="evenodd" d="M22 22c0-5.523 4.477-10 10-10h162c5.523 0 10 4.477 10 10v20c0 5.523-4.477 10-10 10H32c-5.523 0-10-4.477-10-10V22z" fill="#fff"/></g><path d="M34.113 35v-7.11h2.437c.804 0 1.416.162 1.836.484.42.322.63.802.63 1.44 0 .326-.088.619-.264.88-.176.26-.433.462-.772.605.385.104.68.3.89.59.21.287.317.632.317 1.036 0 .667-.215 1.18-.645 1.538-.426.358-1.038.537-1.836.537h-2.593zm1.236-3.208v2.222h1.372c.387 0 .69-.096.908-.288.218-.193.327-.46.327-.801 0-.74-.378-1.117-1.133-1.133H35.35zm0-.908h1.21c.385 0 .684-.087.899-.259.218-.176.327-.423.327-.742 0-.352-.1-.606-.303-.762-.198-.156-.509-.234-.932-.234h-1.201v1.997zm4.736 1.426a3.1 3.1 0 01.308-1.397c.205-.417.493-.736.864-.957a2.42 2.42 0 011.28-.337c.712 0 1.29.23 1.733.689.445.459.686 1.067.722 1.826l.005.278c0 .52-.1.986-.303 1.397-.198.41-.485.727-.859.952-.371.224-.8.337-1.29.337-.745 0-1.342-.248-1.791-.742-.446-.499-.669-1.161-.669-1.988v-.058zm1.187.102c0 .544.112.97.336 1.28.225.305.538.458.938.458.4 0 .711-.156.932-.468.225-.313.337-.77.337-1.372 0-.534-.115-.958-.346-1.27a1.093 1.093 0 00-.933-.469c-.387 0-.695.155-.923.464-.228.306-.341.765-.341 1.377zm8.027-2.695h1.181V35H49.3v-3.525L47.229 35h-1.182v-5.283h1.181v3.525l2.07-3.525zm.556-2.027c0 .41-.143.743-.43.996-.286.254-.668.381-1.147.381-.478 0-.86-.127-1.147-.38-.287-.254-.43-.586-.43-.997h.889c0 .215.06.383.18.503.124.117.293.176.508.176.215 0 .383-.058.503-.176.12-.12.18-.288.18-.503h.895zm1.91 6.363c.328-.368.548-.716.659-1.045.114-.332.182-.755.205-1.27l.068-2.021h3.667v4.336h.733v2.52h-1.182V35h-3.389v1.572h-1.2l.004-2.52h.435zm1.391 0h2.027v-3.316H53.85l-.035 1.011c-.045.97-.265 1.738-.659 2.305zm7.998-4.336h1.182V35h-1.182v-3.525L59.084 35h-1.182v-5.283h1.182v3.525l2.07-3.525zm6.602.942h-1.714V35h-1.186v-4.34H63.16v-.943h4.595v.942zm2.808 4.439c-.752 0-1.363-.236-1.832-.708-.465-.476-.698-1.107-.698-1.895v-.146c0-.528.101-.998.303-1.411.205-.417.492-.741.86-.972a2.266 2.266 0 011.23-.347c.72 0 1.274.23 1.665.689.394.459.59 1.108.59 1.948v.478h-3.451c.035.437.18.782.434 1.035.257.254.58.381.967.381.543 0 .986-.22 1.328-.659l.64.61a2.151 2.151 0 01-.85.738 2.658 2.658 0 01-1.186.259zm-.142-4.527c-.326 0-.59.114-.791.342-.199.228-.326.545-.381.952h2.26v-.088c-.025-.397-.131-.696-.317-.898-.185-.205-.442-.308-.771-.308zm3.354 6.03l-.64-.38a3.34 3.34 0 00.386-.777c.072-.218.11-.44.113-.669v-.922h1.07l-.006.854c-.003.345-.09.69-.263 1.035-.17.349-.39.635-.66.86zM82.531 35h-1.186v-1.763a4.231 4.231 0 01-.967.108c-.723 0-1.275-.173-1.655-.518-.381-.348-.572-.846-.572-1.494v-1.621h1.187v1.621c0 .384.085.656.254.815.172.16.434.24.786.24a4.3 4.3 0 00.967-.113v-2.558h1.186V35zm5.42-4.34h-1.714V35h-1.186v-4.34h-1.695v-.943h4.595v.942zm.425 1.65a3.1 3.1 0 01.308-1.397c.205-.417.493-.736.864-.957a2.42 2.42 0 011.28-.337c.712 0 1.29.23 1.733.689.445.459.686 1.067.722 1.826l.005.278c0 .52-.1.986-.303 1.397a2.2 2.2 0 01-.859.952c-.371.224-.8.337-1.29.337-.745 0-1.342-.248-1.791-.742-.446-.499-.669-1.161-.669-1.988v-.058zm1.186.102c0 .544.113.97.337 1.28.225.305.537.458.938.458.4 0 .711-.156.932-.468.225-.313.337-.77.337-1.372 0-.534-.115-.958-.346-1.27a1.093 1.093 0 00-.933-.469c-.387 0-.695.155-.923.464-.228.306-.341.765-.341 1.377zm7.217-2.402c.664 0 1.197.223 1.597.669.4.442.6 1.045.6 1.806v.059c0 .762-.218 1.379-.654 1.85-.433.473-1.022.709-1.767.709-.726 0-1.312-.241-1.758-.723-.446-.482-.67-1.14-.67-1.973v-.342c0-1.139.203-2.04.606-2.705.404-.664 1.006-1.079 1.807-1.245.45-.09.739-.187.87-.288a.505.505 0 00.2-.42h.956c0 .329-.053.596-.16.801a1.26 1.26 0 01-.494.503c-.221.127-.602.247-1.143.361-.494.104-.872.29-1.132.557-.257.267-.43.636-.518 1.108.472-.485 1.025-.727 1.66-.727zm-.234.952c-.384 0-.685.13-.903.39-.218.258-.328.655-.328 1.192 0 .508.108.903.323 1.187.215.283.52.424.918.424.394 0 .698-.141.913-.425.218-.286.327-.716.327-1.289 0-.455-.11-.815-.327-1.079-.215-.267-.523-.4-.923-.4zm4.639.434h1.162c.433 0 .81.075 1.133.225.322.15.566.36.732.63.169.27.254.584.254.942 0 .544-.192.98-.576 1.309-.384.329-.896.495-1.534.498h-2.358v-5.283h1.187v1.68zM106.53 35h-1.186v-5.283h1.186V35zm-5.346-2.651v1.704h1.157c.29 0 .517-.072.683-.215.17-.147.254-.353.254-.62s-.083-.477-.249-.63c-.162-.156-.384-.236-.664-.24h-1.181zm11.43 1.801c.296 0 .542-.086.738-.258a.884.884 0 00.312-.64h1.118a1.755 1.755 0 01-.307.923 2.026 2.026 0 01-.782.674c-.328.166-.683.249-1.064.249-.739 0-1.325-.24-1.758-.718-.433-.479-.649-1.14-.649-1.983v-.122c0-.804.215-1.447.644-1.928.43-.485 1.016-.728 1.758-.728.628 0 1.139.184 1.533.552.397.364.606.845.625 1.44h-1.118a1.082 1.082 0 00-.312-.747.99.99 0 00-.738-.293c-.384 0-.68.14-.888.42-.209.277-.315.698-.318 1.265v.19c0 .573.103 1.001.308 1.285.208.28.508.42.898.42zm2.842-1.84c0-.518.103-.984.308-1.397.205-.417.493-.736.864-.957a2.419 2.419 0 011.279-.337c.713 0 1.291.23 1.734.689.446.459.686 1.067.722 1.826l.005.278c0 .52-.101.986-.303 1.397-.198.41-.485.727-.859.952-.371.224-.801.337-1.289.337-.745 0-1.343-.248-1.792-.742-.446-.499-.669-1.161-.669-1.988v-.058zm1.187.102c0 .544.112.97.336 1.28.225.305.538.458.938.458.4 0 .711-.156.933-.468.224-.313.337-.77.337-1.372 0-.534-.116-.958-.347-1.27a1.094 1.094 0 00-.933-.469c-.387 0-.695.155-.923.464-.227.306-.341.765-.341 1.377zm6.518-.957l1.006-1.738h1.318l-1.616 2.602 1.67 2.681h-1.309l-1.054-1.807-1.05 1.807h-1.318l1.67-2.68-1.612-2.603h1.309l.986 1.738zm7.759.957c0 .817-.186 1.47-.557 1.958-.371.485-.869.728-1.494.728-.579 0-1.043-.19-1.391-.572v2.505h-1.187v-7.314h1.094l.049.537c.348-.423.822-.635 1.42-.635.645 0 1.15.241 1.514.723.368.478.552 1.144.552 1.997v.073zm-1.182-.102c0-.528-.106-.946-.317-1.255-.208-.31-.508-.464-.899-.464-.485 0-.833.2-1.044.6v2.344c.214.41.566.615 1.054.615.378 0 .672-.151.884-.454.215-.306.322-.768.322-1.386zm5.347 2.69a1.83 1.83 0 01-.137-.493c-.377.394-.84.59-1.386.59-.531 0-.964-.15-1.299-.453a1.45 1.45 0 01-.503-1.123c0-.564.208-.995.625-1.294.42-.303 1.019-.454 1.797-.454h.727v-.347c0-.274-.076-.492-.229-.654-.153-.166-.386-.25-.699-.25-.27 0-.491.069-.664.206a.621.621 0 00-.258.512h-1.187c0-.29.096-.56.288-.81.192-.254.453-.453.781-.596a2.773 2.773 0 011.109-.215c.618 0 1.111.156 1.479.469.368.31.557.745.567 1.308v2.383c0 .476.066.855.2 1.138V35h-1.211zm-1.304-.855c.235 0 .454-.056.659-.17.209-.114.365-.267.469-.46v-.995h-.639c-.44 0-.77.076-.992.229a.744.744 0 00-.332.65c0 .227.075.41.225.546.153.134.356.2.61.2zm8.032.855h-1.186v-2.134h-2.056V35h-1.186v-5.283h1.186v2.202h2.056v-2.202h1.186V35zm5.499-5.283V35h-1.182v-1.938h-1.109L143.894 35h-1.231l1.245-2.134a1.679 1.679 0 01-.752-.586 1.522 1.522 0 01-.259-.874c0-.491.189-.893.567-1.206.381-.316.893-.477 1.538-.483h2.31zm-3.228 1.719a.68.68 0 00.244.541c.166.137.378.206.635.206h1.167v-1.524h-1.094c-.29 0-.521.073-.693.22a.697.697 0 00-.259.556zm8.701-.777h-1.714V35h-1.186v-4.34h-1.695v-.943h4.595v.942zm2.07.738h1.163c.433 0 .81.074 1.132.224.323.15.567.36.733.63.169.27.254.584.254.942 0 .544-.192.98-.576 1.309-.385.329-.896.495-1.534.498h-2.358v-5.283h1.186v1.68zm0 .952v1.704h1.158c.289 0 .517-.072.683-.215.17-.147.254-.353.254-.62s-.083-.477-.249-.63c-.163-.156-.384-.236-.664-.24h-1.182zm8.892 1.801c.296 0 .542-.086.737-.258a.882.882 0 00.313-.64h1.118a1.757 1.757 0 01-.308.923 2.023 2.023 0 01-.781.674c-.329.166-.683.249-1.064.249-.739 0-1.325-.24-1.758-.718-.433-.479-.65-1.14-.65-1.983v-.122c0-.804.215-1.447.645-1.928.43-.485 1.016-.728 1.758-.728.628 0 1.139.184 1.533.552.397.364.606.845.625 1.44h-1.118a1.079 1.079 0 00-.313-.747.988.988 0 00-.737-.293c-.384 0-.68.14-.889.42-.208.277-.314.698-.317 1.265v.19c0 .573.103 1.001.308 1.285.208.28.507.42.898.42zm7.222-3.49h-1.714V35h-1.187v-4.34h-1.694v-.943h4.595v.942zm3.872 4.34a1.83 1.83 0 01-.137-.493c-.378.394-.84.59-1.387.59-.53 0-.963-.15-1.298-.453a1.45 1.45 0 01-.503-1.123c0-.564.208-.995.625-1.294.42-.303 1.019-.454 1.797-.454h.727v-.347c0-.274-.076-.492-.229-.654-.153-.166-.386-.25-.699-.25-.27 0-.491.069-.664.206a.622.622 0 00-.259.512h-1.186c0-.29.096-.56.288-.81a1.91 1.91 0 01.781-.596 2.773 2.773 0 011.109-.215c.618 0 1.111.156 1.479.469.368.31.557.745.567 1.308v2.383c0 .476.066.855.2 1.138V35h-1.211zm-1.304-.855c.234 0 .454-.056.659-.17.209-.114.365-.267.469-.46v-.995h-.64c-.439 0-.769.076-.991.229a.744.744 0 00-.332.65c0 .227.075.41.225.546.153.134.356.2.61.2zm7.637-3.486h-1.714V35h-1.187v-4.34h-1.694v-.943h4.595v.942zm2.07.738h1.162c.433 0 .811.074 1.133.224.322.15.566.36.732.63.17.27.254.584.254.942 0 .544-.192.98-.576 1.309-.384.329-.895.495-1.533.498h-2.358v-5.283h1.186v1.68zm0 .952v1.704h1.157c.29 0 .518-.072.684-.215.169-.147.254-.353.254-.62s-.083-.477-.249-.63c-.163-.156-.384-.236-.664-.24h-1.182zm7.529-2.632h1.182V35h-1.182v-3.525L188.703 35h-1.182v-5.283h1.182v3.525l2.07-3.525z" fill="#000"/><defs><filter id="filter0_d" x="0" y="0" width="226" height="84" filterUnits="userSpaceOnUse" color-interpolation-filters="sRGB"><feFlood flood-opacity="0" result="BackgroundImageFix"/><feColorMatrix in="SourceAlpha" values="0 0 0 0 0 0 0 0 0 0 0 0 0 0 0 0 0 0 127 0"/><feOffset dy="10"/><feGaussianBlur stdDeviation="11"/><feColorMatrix values="0 0 0 0 0.231373 0 0 0 0 0.290196 0 0 0 0 0.454902 0 0 0 0.1 0"/><feBlend in2="BackgroundImageFix" result="effect1_dropShadow"/><feBlend in="SourceGraphic" in2="effect1_dropShadow" result="shape"/></filter></defs></svg>